<svg width="24" height="24" viewBox="0 0 24 24" fill="none" xmlns="http://www.w3.org/2000/svg">
<path d="M17.6739 4.16584L17.6016 8.00152C17.5913 8.52779 17.9319 9.2261 18.3653 9.53984L20.9245 11.4425C22.5653 12.657 22.297 14.1447 20.3363 14.7519L17.0031 15.7741C16.4459 15.9461 15.8577 16.5433 15.7132 17.0999L14.9186 20.0753C14.2891 22.4233 12.7206 22.6561 11.4203 20.5915L9.60409 17.7071C9.27386 17.1808 8.48959 16.7861 7.87042 16.8165L4.42373 16.9886C1.95739 17.11 1.25567 15.7134 2.8655 13.8714L4.90875 11.5437C5.29056 11.1085 5.46599 10.2989 5.29056 9.75237L4.23798 6.47332C3.62914 4.55042 4.723 3.48776 6.67337 4.11524L9.7176 5.09693C10.2336 5.25886 11.0075 5.14753 11.4409 4.83379L14.6193 2.58704C16.3427 1.38269 17.7152 2.09113 17.6739 4.16584Z" fill="#292D32"/>
</svg>
