<svg width="24" height="24" viewBox="0 0 24 24" fill="#FFA600" xmlns="http://www.w3.org/2000/svg">
<path d="M12.9953 2.37616L14.8508 5.73457C15.1051 6.19556 15.7493 6.63013 16.2815 6.68517L19.4493 7.05355C21.4776 7.28507 21.9892 8.70784 20.5949 10.2141L18.2194 12.7661C17.8229 13.1937 17.6121 14.005 17.7653 14.5594L18.5651 17.5339C19.1941 19.8823 17.9521 20.8682 15.7936 19.7301L12.7783 18.1399C12.2291 17.8492 11.3526 17.8995 10.8315 18.2354L7.93267 20.1077C5.85749 21.4461 4.55135 20.5872 5.0244 18.1869L5.62984 15.1491C5.74288 14.5813 5.48993 13.7923 5.0647 13.4066L2.5274 11.0963C1.03853 9.7352 1.45442 8.26786 3.45728 7.83617L6.5846 7.16435C7.11242 7.04662 7.72699 6.56321 7.94545 6.07476L9.57447 2.53951C10.4507 0.631082 11.9935 0.558499 12.9953 2.37616Z" stroke="#292D32" stroke-width="0" stroke-linecap="round" stroke-linejoin="round"/>
</svg>
