<svg width="24" height="24" viewBox="0 0 24 24" fill="none" xmlns="http://www.w3.org/2000/svg">
<path d="M20.36 12.73C19.99 12.73 19.68 12.45 19.64 12.08C19.4 9.88 18.22 7.9 16.4 6.64C16.07 6.41 15.99 5.96 16.22 5.63C16.45 5.3 16.9 5.22 17.23 5.45C19.4 6.96 20.8 9.32 21.09 11.93C21.13 12.33 20.84 12.69 20.44 12.73C20.41 12.73 20.39 12.73 20.36 12.73Z" fill="#292D32"/>
<path d="M3.74001 12.78C3.72001 12.78 3.69001 12.78 3.67001 12.78C3.27001 12.74 2.98001 12.38 3.02001 11.98C3.29001 9.37 4.67001 7.01 6.82001 5.49C7.14001 5.26 7.60001 5.34 7.83001 5.66C8.06001 5.99 7.98001 6.44 7.66001 6.67C5.86001 7.95 4.69001 9.93 4.47001 12.12C4.43001 12.5 4.11001 12.78 3.74001 12.78Z" fill="#292D32"/>
<path d="M15.99 21.1C14.76 21.69 13.44 21.99 12.06 21.99C10.62 21.99 9.25001 21.67 7.97001 21.02C7.61001 20.85 7.47001 20.41 7.65001 20.05C7.82001 19.69 8.26001 19.55 8.62001 19.72C9.25001 20.04 9.92001 20.26 10.6 20.39C11.52 20.57 12.46 20.58 13.38 20.42C14.06 20.3 14.73 20.09 15.35 19.79C15.72 19.62 16.16 19.76 16.32 20.13C16.5 20.49 16.36 20.93 15.99 21.1Z" fill="#292D32"/>
<path d="M12.05 2.01C10.5 2.01 9.23001 3.27 9.23001 4.83C9.23001 6.39 10.49 7.65 12.05 7.65C13.61 7.65 14.87 6.39 14.87 4.83C14.87 3.27 13.61 2.01 12.05 2.01Z" fill="#292D32"/>
<path d="M5.05001 13.87C3.50001 13.87 2.23001 15.13 2.23001 16.69C2.23001 18.25 3.49001 19.51 5.05001 19.51C6.61001 19.51 7.87001 18.25 7.87001 16.69C7.87001 15.13 6.60001 13.87 5.05001 13.87Z" fill="#292D32"/>
<path d="M18.95 13.87C17.4 13.87 16.13 15.13 16.13 16.69C16.13 18.25 17.39 19.51 18.95 19.51C20.51 19.51 21.77 18.25 21.77 16.69C21.77 15.13 20.51 13.87 18.95 13.87Z" fill="#292D32"/>
</svg>
